<svg width="124" height="124" viewBox="0 0 124 124" fill="none" xmlns="http://www.w3.org/2000/svg">
<circle cx="62" cy="62" r="62" fill="#F67451"/>
<path d="M43.1158 75.24C56.0658 65.9561 69.323 47.4068 87.5137 25.423C87.7009 25.1968 88.0436 25.1779 88.2522 25.3845L95.6414 32.7038C95.8389 32.8995 95.8389 33.2186 95.6414 33.4143L92.2839 36.74C92.089 36.9331 91.775 36.9331 91.5801 36.74L88.2595 33.4508C88.0483 33.2416 87.6977 33.2675 87.5121 33.4997C72.7029 52.0221 64.7212 59.3521 57.3539 71.3395C55.6805 74.0624 53.889 78.3831 52.1107 82.6381M43.1158 75.24C38.5111 78.5411 33.9452 80.6708 29.2102 81.3668C29.0093 81.3964 28.842 81.5482 28.7926 81.7452C25.0815 96.5375 35.0549 101.516 45.1498 95.5166C47.2133 94.2902 49.6494 88.5272 52.1107 82.6381M43.1158 75.24L52.1107 82.6381" stroke="#131200" stroke-width="3"/>
<g clip-path="url(#clip0)">
<path fill-rule="evenodd" clip-rule="evenodd" d="M73.3823 95.363C71.6779 95.0255 69.9881 94.1232 68.6212 92.771C74.4971 90.4737 79.1265 86.4912 81.4249 81.8574C82.8998 87.9853 79.1344 93.8375 73.3823 95.363V95.363ZM59.4649 82.3276C61.2412 82.9689 62.3539 83.9487 63.3664 85.1356C63.2415 89.6637 65.4611 93.3594 68.4671 95.5565C62.4157 94.4495 58.2375 88.5883 59.4649 82.3276ZM63.1425 76.0051C65.6513 76.8736 68.2309 78.8165 70.0376 81.1925C68.3906 82.4795 66.6885 83.3862 65.3441 83.987C64.0762 82.4435 62.589 81.0463 60.1151 80.1777C60.7901 78.5589 61.8375 77.1369 63.1425 76.0051V76.0051ZM75.1395 74.2614C74.4071 76.4529 73.1629 78.2495 71.7251 79.6951C70.0207 77.5036 67.7291 75.6451 65.3666 74.4987C68.4142 72.9305 71.9805 72.8247 75.1395 74.2614V74.2614ZM80.2166 78.8503C78.6371 83.9218 73.5937 88.5747 67.1452 90.9147C66.3206 89.5951 65.7716 88.0404 65.6389 86.3101C68.8744 84.9613 74.7964 81.7122 77.1172 75.4179C78.3739 76.3348 79.4302 77.5025 80.2166 78.8503V78.8503ZM84 84.5C84 77.0491 77.952 71 70.5 71C63.0491 71 57 77.0491 57 84.5C57 91.9509 63.0491 98 70.5 98C77.8553 98 84 92.0173 84 84.5" fill="#131200"/>
</g>
<defs>
<clipPath id="clip0">
<rect width="27" height="27" fill="white" transform="translate(57 71)"/>
</clipPath>
</defs>
</svg>
